<?xml version="1.0" encoding="utf-8"?>
<!-- Generator: Adobe Illustrator 23.0.3, SVG Export Plug-In . SVG Version: 6.00 Build 0)  -->
<svg width="50px" height="48px" version="1.1" id="Capa_1" xmlns="http://www.w3.org/2000/svg" xmlns:xlink="http://www.w3.org/1999/xlink" x="0px" y="0px"
	 viewBox="0 0 50 48" style="enable-background:new 0 0 50 48;" xml:space="preserve">
<style type="text/css">
	.st0{fill:#7510F7;}
</style>
<g>
	<path class="st0" d="M27.8,45.7c-1.9,0-3.7,0-5.6,0c-0.3,0-0.6-0.1-0.8-0.1c-2.5-0.3-5.1-0.6-7.6-1c-2.1-0.4-4.2-1.1-6-2.3
		C6.7,41.6,6,40.6,6,39.2C6,29,6,19,5.9,8.9c0-1.1,0.4-1.9,1.2-2.5c0.7-0.6,1.5-1.2,2.4-1.5c2.5-0.8,5-1.5,7.5-2
		c1.7-0.4,3.5-0.4,5.2-0.6c1.9,0,3.7,0,5.6,0c0.3,0,0.6,0.1,0.8,0.1c2.2,0.3,4.5,0.5,6.7,0.8c2.4,0.4,4.8,1.1,6.9,2.5
		C43.3,6.4,44,7.4,44,8.8c0,10.1,0,20.2,0,30.3c0,1-0.3,1.8-1.1,2.5c-0.7,0.5-1.4,1.1-2.2,1.4c-2.4,1.2-5.1,1.7-7.8,2.1
		C31.3,45.4,29.5,45.5,27.8,45.7z M8.5,32.6c-0.2,1.8-0.1,2.2,1.4,2.9c1.5,0.6,3.1,1.2,4.7,1.5c2.1,0.5,4.3,0.7,6.6,1
		c-0.1,0.7-0.1,1.5-0.2,2.4c-4.4-0.3-8.6-0.9-12.5-2.7c-0.2,1.9-0.1,2.3,1.5,3c1.9,0.7,3.8,1.4,5.8,1.8c5.3,1,10.7,1.1,16.1,0.3
		c2.6-0.4,5.1-1.2,7.6-1.9c1.4-0.4,2.2-1.4,2-3c-0.2-1.7,0-3.4,0-5.2C36.2,35,30.6,35.4,25,35.4C19.4,35.4,13.8,35,8.5,32.6z
		 M41.5,12.4c-11.1,3.6-22,3.6-33,0c-0.2,1.8-0.1,2,1.6,2.8c1.1,0.5,2.1,0.9,3.3,1.1c2.6,0.5,5.2,0.9,7.8,1.4
		c-0.1,0.7-0.1,1.5-0.2,2.3c-4.4-0.4-8.6-0.9-12.5-2.8c-0.3,1.8-0.1,2.2,1.3,2.9c0.6,0.3,1.3,0.6,2,0.8c7.6,2.2,15.3,2.2,23,0.8
		c1.9-0.3,3.7-1.1,5.5-1.8c0.5-0.2,1.1-0.8,1.2-1.2C41.6,16.6,41.5,14.5,41.5,12.4z M41.5,22.6c-11.1,3.6-22.1,3.6-33,0
		c-0.1,1.8-0.1,2.1,1.7,2.8c1.7,0.7,3.5,1.2,5.2,1.6c1.9,0.4,3.9,0.6,5.9,0.9c-0.1,0.8-0.1,1.6-0.2,2.4c-4.4-0.3-8.6-0.9-12.5-2.7
		c-0.2,1.9-0.1,2.3,1.5,3c1,0.5,2.1,0.9,3.2,1.1c7,1.7,14.1,1.8,21.1,0.5c2.1-0.4,4.1-1.3,6.2-2c0.4-0.1,0.9-0.7,0.9-1.1
		C41.6,26.8,41.5,24.6,41.5,22.6z M23.6,12.5c4.7,0,8.4-0.1,12-1c1.8-0.4,3.5-1.1,5.1-1.9c1.2-0.6,1.2-1.1,0.1-1.8
		C40,7.3,39,6.9,38.1,6.5c-3-1-6.2-1.4-9.4-1.6C23.7,4.6,18.8,4.8,14,6c-1.7,0.4-3.3,1.2-4.8,1.9c-0.9,0.4-0.9,1,0,1.6
		c0.6,0.4,1.3,0.8,2.1,1C15.5,12.1,20,12.5,23.6,12.5z"/>
	<path class="st0" d="M26.2,38c0,0.8,0,1.6,0,2.4c-0.8,0-1.6,0-2.4,0c0-0.8,0-1.6,0-2.4C24.6,38,25.4,38,26.2,38z"/>
	<path class="st0" d="M23.8,17.7c0.8,0,1.6,0,2.4,0c0,0.8,0,1.6,0,2.4c-0.8,0-1.6,0-2.4,0C23.8,19.3,23.8,18.5,23.8,17.7z"/>
	<path class="st0" d="M26.2,27.9c0,0.8,0,1.6,0,2.4c-0.8,0-1.6,0-2.4,0c0-0.8,0-1.5,0-2.4C24.6,27.9,25.3,27.9,26.2,27.9z"/>
</g>
</svg>
